<?xml version="1.0" encoding="UTF-8" standalone="no"?>
<!-- Created with Inkscape (http://www.inkscape.org/) -->

<svg
   width="34.395832mm"
   height="12.843843mm"
   viewBox="0 0 34.395832 12.843843"
   version="1.1"
   id="svg5"
   sodipodi:docname="logo.svg"
   inkscape:version="1.1.1 (1:1.1+202109281949+c3084ef5ed)"
   xmlns:inkscape="http://www.inkscape.org/namespaces/inkscape"
   xmlns:sodipodi="http://sodipodi.sourceforge.net/DTD/sodipodi-0.dtd"
   xmlns="http://www.w3.org/2000/svg"
   xmlns:svg="http://www.w3.org/2000/svg">
  <sodipodi:namedview
     id="namedview7"
     pagecolor="#d9d9d9"
     bordercolor="#666666"
     borderopacity="1.0"
     inkscape:pageshadow="2"
     inkscape:pageopacity="0"
     inkscape:pagecheckerboard="0"
     inkscape:document-units="mm"
     showgrid="false"
     inkscape:showpageshadow="false"
     showborder="true"
     inkscape:zoom="3.9408308"
     inkscape:cx="120.91359"
     inkscape:cy="-14.210201"
     inkscape:window-width="1920"
     inkscape:window-height="1043"
     inkscape:window-x="0"
     inkscape:window-y="0"
     inkscape:window-maximized="1"
     inkscape:current-layer="text5960"
     fit-margin-top="0"
     fit-margin-left="0"
     fit-margin-right="0"
     fit-margin-bottom="0" />
  <defs
     id="defs2" />
  <g
     inkscape:label="Layer 1"
     inkscape:groupmode="layer"
     id="layer1"
     transform="translate(-46.615096,-160.13787)">
    <g
       id="g1015"
       transform="matrix(0.31798973,0,0,0.31798973,31.791974,109.21567)">
      <g
         aria-label="velarde"
         id="text5960"
         style="font-weight:600;font-size:27.6098px;font-family:'URW Gothic';-inkscape-font-specification:'URW Gothic Semi-Bold';letter-spacing:1.25942px;fill:#ffffff;stroke-width:0.690247">
        <path
           d="m 52.772082,180.5415 h 2.926638 l 6.156986,-15.29583 h -4.14147 l -3.478835,10.1328 -3.534054,-10.1328 h -4.086251 z"
           id="path9102" />
        <path
           d="m 79.156371,174.52257 c 0.11044,-0.5522 0.138049,-0.88352 0.138049,-1.43571 0,-4.72128 -3.340785,-8.20011 -7.896402,-8.20011 -4.500398,0 -8.062062,3.56166 -8.062062,8.06206 0,4.47279 3.616884,7.95162 8.28294,7.95162 2.512492,0 4.472788,-0.91112 6.074156,-2.76098 0.579806,-0.71785 0.966343,-1.35288 1.214831,-2.12595 h -4.003421 c -0.938733,1.10439 -1.849856,1.51854 -3.368395,1.51854 -2.181175,0 -3.782543,-1.15962 -4.2243,-3.00947 z m -11.955043,-3.23035 c 0.579806,-1.9879 2.070735,-3.03708 4.251909,-3.03708 2.264004,0 3.754933,1.07678 4.2243,3.03708 z"
           id="path9104" />
        <path
           d="m 82.955861,180.5415 h 3.672103 v -20.40364 h -3.672103 z"
           id="path9106" />
        <path
           d="m 106.33072,165.24567 h -3.36839 v 2.04313 c -1.27005,-1.6842 -2.78859,-2.40205 -4.997376,-2.40205 -4.528007,0 -7.785963,3.396 -7.785963,8.06206 0,4.61084 3.230346,7.95162 7.703134,7.95162 2.153565,0 3.616885,-0.66263 5.080205,-2.34683 v 1.9879 h 3.36839 z m -7.979229,3.00947 c 2.622929,0 4.500399,1.9603 4.500399,4.74889 0,1.10439 -0.44176,2.37444 -1.10439,3.14752 -0.74547,0.91112 -1.932689,1.38049 -3.340789,1.38049 -2.678151,0 -4.528007,-1.82225 -4.528007,-4.5004 0,-2.78859 1.849856,-4.7765 4.472787,-4.7765 z"
           id="path9108" />
        <path
           d="m 110.32351,180.5415 h 3.6721 v -8.50381 c -0.0828,-2.26401 1.07679,-3.53406 3.28557,-3.61689 v -3.53405 h -0.2761 c -1.57376,0 -2.34683,0.44175 -3.31317,1.84985 v -1.49093 h -3.3684 z"
           id="path9110" />
        <path
           d="m 135.43775,160.13786 h -3.6721 v 6.46069 c -1.07678,-1.18722 -2.84381,-1.90507 -4.74888,-1.90507 -4.30713,0 -7.67553,3.58927 -7.67553,8.1725 0,4.55562 3.31318,8.03445 7.67553,8.03445 2.07073,0 3.56166,-0.69024 5.05259,-2.34683 v 1.9879 h 3.36839 z m -7.92401,7.92401 c 2.56771,0 4.52801,2.04313 4.52801,4.74889 0,2.65054 -1.9603,4.72128 -4.44518,4.72128 -2.56771,0 -4.55562,-2.09835 -4.55562,-4.83172 0,-2.62293 1.9603,-4.63845 4.47279,-4.63845 z"
           id="path9112" />
        <path
           d="m 154.64354,174.52257 c 0.11044,-0.5522 0.13805,-0.88352 0.13805,-1.43571 0,-4.72128 -3.34079,-8.20011 -7.89641,-8.20011 -4.50039,0 -8.06206,3.56166 -8.06206,8.06206 0,4.47279 3.61689,7.95162 8.28294,7.95162 2.51249,0 4.47279,-0.91112 6.07416,-2.76098 0.5798,-0.71785 0.96634,-1.35288 1.21483,-2.12595 h -4.00342 c -0.93874,1.10439 -1.84986,1.51854 -3.3684,1.51854 -2.18117,0 -3.78254,-1.15962 -4.2243,-3.00947 z m -11.95505,-3.23035 c 0.57981,-1.9879 2.07074,-3.03708 4.25191,-3.03708 2.26401,0 3.75494,1.07678 4.2243,3.03708 z"
           id="path9114" />
      </g>
      <g
         aria-label="seguros"
         id="text10686"
         style="font-size:11.3243px;font-family:'URW Gothic';-inkscape-font-specification:'URW Gothic';letter-spacing:0.600604px;fill:#ffffff;stroke-width:0.283107">
        <path
           d="m 101.59587,196.27068 c 0.0113,1.20037 0.7927,1.97042 1.99308,1.97042 1.12111,0 1.89116,-0.7927 1.89116,-1.92513 0,-0.75873 -0.35105,-1.27964 -1.07581,-1.5854 -0.95124,-0.39635 -0.99654,-0.40767 -1.1664,-0.49827 -0.38503,-0.19251 -0.56622,-0.45297 -0.56622,-0.81535 0,-0.49827 0.39635,-0.89462 0.89462,-0.89462 0.54357,0 0.86065,0.31708 0.90595,0.90595 h 0.84932 c -0.034,-0.99654 -0.74741,-1.676 -1.74394,-1.676 -1.00787,0 -1.75527,0.73608 -1.75527,1.74394 0,0.45297 0.15854,0.82668 0.4643,1.10978 0.26046,0.23781 0.27178,0.24914 1.14375,0.60019 0.96257,0.39635 1.20038,0.62284 1.20038,1.18905 0,0.62284 -0.43033,1.07581 -1.04184,1.07581 -0.70211,0 -1.12111,-0.43032 -1.1664,-1.20037 z"
           id="path9131" />
        <path
           d="m 113.3056,195.27414 c 0,-0.84933 -0.11324,-1.37024 -0.419,-1.91381 -0.55489,-0.99654 -1.6307,-1.60805 -2.81975,-1.60805 -1.80056,0 -3.20478,1.41554 -3.20478,3.2161 0,1.83454 1.43819,3.27272 3.27273,3.27272 1.34759,0 2.55929,-0.87197 3.01226,-2.18559 h -0.87197 c -0.35105,0.84933 -1.22303,1.41554 -2.16294,1.41554 -1.27965,0 -2.34413,-0.97389 -2.41208,-2.19691 z m -5.58288,-0.75873 c 0.22649,-1.18905 1.1664,-1.99308 2.34413,-1.99308 1.20038,0 2.10632,0.74741 2.40075,1.99308 z"
           id="path9133" />
        <path
           d="m 121.26699,191.8995 h -0.838 v 1.09845 c -0.62284,-0.86064 -1.38156,-1.24567 -2.43472,-1.24567 -1.81189,0 -3.15948,1.40421 -3.15948,3.27272 0,1.81189 1.40421,3.2161 3.22742,3.2161 1.12111,0 1.87983,-0.45297 2.36678,-1.40421 v 0.419 c 0,0.61151 -0.0679,0.99654 -0.24913,1.38156 -0.32841,0.71343 -1.06449,1.12111 -2.02705,1.12111 -0.69079,0 -1.22303,-0.20384 -1.66468,-0.62284 -0.21516,-0.19251 -0.35105,-0.38502 -0.61151,-0.84932 h -0.81535 c 0.45297,1.44951 1.55143,2.24221 3.11418,2.24221 1.07581,0 1.98176,-0.40767 2.514,-1.10978 0.419,-0.56621 0.57754,-1.22302 0.57754,-2.43472 z m -3.2161,0.62283 c 1.33626,0 2.3781,1.05316 2.3781,2.40075 0,1.44951 -1.01919,2.54797 -2.36678,2.54797 -1.35891,0 -2.3781,-1.07581 -2.3781,-2.51399 0,-1.41554 0.99654,-2.43473 2.36678,-2.43473 z"
           id="path9135" />
        <path
           d="m 128.75275,191.8995 h -0.838 v 3.18212 c 0,0.75873 -0.11324,1.23435 -0.3737,1.61938 -0.35105,0.49827 -0.90595,0.77005 -1.56275,0.77005 -0.69079,0 -1.26833,-0.28311 -1.55143,-0.78138 -0.19252,-0.31708 -0.29444,-0.81535 -0.29444,-1.44951 v -3.34066 h -0.83799 v 3.34066 c 0,0.9286 0.14721,1.55143 0.48694,2.01573 0.4643,0.64548 1.2117,0.98521 2.14029,0.98521 0.96257,0 1.57408,-0.33973 1.99308,-1.10978 v 0.96257 h 0.838 z"
           id="path9137" />
        <path
           d="m 130.78021,198.09389 h 0.838 v -3.61245 c -0.0113,-1.12111 0.61151,-1.81189 1.75527,-1.90249 v -0.82667 c -0.89462,0.0453 -1.42687,0.35105 -1.75527,1.03051 v -0.88329 h -0.838 z"
           id="path9139" />
        <path
           d="m 137.45062,191.75228 c -1.84586,0 -3.25007,1.39289 -3.25007,3.20478 0,1.9138 1.39289,3.28404 3.31802,3.28404 1.81189,0 3.14816,-1.37024 3.14816,-3.22742 0,-1.89116 -1.3476,-3.2614 -3.21611,-3.2614 z m 0,0.77005 c 1.37024,0 2.36678,1.05316 2.36678,2.50267 0,1.42686 -0.97389,2.44605 -2.32148,2.44605 -1.42686,0 -2.44605,-1.03051 -2.44605,-2.49135 0,-1.40421 1.03051,-2.45737 2.40075,-2.45737 z"
           id="path9141" />
        <path
           d="m 141.94677,196.27068 c 0.0113,1.20037 0.7927,1.97042 1.99308,1.97042 1.12111,0 1.89116,-0.7927 1.89116,-1.92513 0,-0.75873 -0.35106,-1.27964 -1.07581,-1.5854 -0.95124,-0.39635 -0.99654,-0.40767 -1.1664,-0.49827 -0.38503,-0.19251 -0.56622,-0.45297 -0.56622,-0.81535 0,-0.49827 0.39635,-0.89462 0.89462,-0.89462 0.54357,0 0.86065,0.31708 0.90594,0.90595 h 0.84933 c -0.034,-0.99654 -0.74741,-1.676 -1.74394,-1.676 -1.00787,0 -1.75527,0.73608 -1.75527,1.74394 0,0.45297 0.15854,0.82668 0.46429,1.10978 0.26046,0.23781 0.27179,0.24914 1.14376,0.60019 0.96256,0.39635 1.20037,0.62284 1.20037,1.18905 0,0.62284 -0.43032,1.07581 -1.04183,1.07581 -0.70211,0 -1.12111,-0.43032 -1.1664,-1.20037 z"
           id="path9143" />
      </g>
      <rect
         id="rect65366"
         width="102.54475"
         height="1.8989769"
         x="49.955135"
         y="184.58057"
         style="fill:#ffffff;stroke-width:0.264583" />
    </g>
  </g>
</svg>
